<svg xmlns="http://www.w3.org/2000/svg" width="396" height="170.60836314758876" viewBox="0 0 350 150.79021995367694" class="looka-1j8o68f"><defs id="SvgjsDefs1044"/><g id="SvgjsG1045" featurekey="K5GtsI-0" transform="matrix(10.6857769842062,0,0,10.6857769842062,-13.253255187936666,-62.9253248258226)" fill="#ffffff"><path d="M17.998 20 l-2.9199 0 l-0.92773 -10.635 l-3.5742 10.635 l-1.8945 0 l-3.5742 -10.635 l-0.9375 10.635 l-2.9297 0 l1.1816 -14.111 l4.1797 0 l3.0078 8.8574 l3.0469 -8.8574 l4.1797 0 z M19.52148125 20 l5.498 -7.3633 l-5.3418 -6.748 l3.5645 0 l3.5156 4.6289 l3.5156 -4.6289 l3.5645 0 l-5.3418 6.748 l5.498 7.3633 l-3.7305 0 l-3.5059 -4.9902 l-3.5059 4.9902 l-3.7305 0 z"/></g></svg>