<svg width="181" height="51" viewBox="0 0 181 51" fill="none" xmlns="http://www.w3.org/2000/svg">
<path d="M24.606 50.107C38.1955 50.107 49.212 39.0905 49.212 25.501C49.212 11.9115 38.1955 0.894989 24.606 0.894989C11.0165 0.894989 0 11.9115 0 25.501C0 39.0905 11.0165 50.107 24.606 50.107Z" fill="#101636"/>
<mask id="mask0_5744_10" style="mask-type:luminance" maskUnits="userSpaceOnUse" x="12" y="13" width="25" height="25">
<path d="M12.303 13.197H36.909V37.803H12.303V13.197Z" fill="white"/>
</mask>
<g mask="url(#mask0_5744_10)">
<path fill-rule="evenodd" clip-rule="evenodd" d="M24.363 15.13C24.28 14.172 24.992 13.27 26.073 13.202C26.879 13.147 27.522 13.516 27.933 14.227C28.133 14.577 28.337 14.925 28.541 15.276C28.863 15.83 29.187 16.386 29.505 16.947C29.624 17.152 29.747 17.354 29.87 17.557C30.116 17.96 30.362 18.364 30.572 18.793C31.174 20.009 30.449 21.349 29.095 21.527C28.329 21.636 27.577 21.226 27.139 20.487C26.859 20.009 26.582 19.527 26.305 19.046C26.028 18.564 25.751 18.082 25.47 17.603C25.34 17.378 25.207 17.156 25.074 16.933C24.9393 16.7111 24.807 16.4877 24.677 16.263C24.472 15.908 24.294 15.539 24.349 15.143L24.363 15.13ZM28.384 25.423C28.466 27.323 26.824 29.032 24.855 29.113C22.913 29.196 21.135 27.542 21.094 25.56C21.0845 24.5953 21.4553 23.6657 22.126 22.9723C22.7968 22.279 23.7136 21.8776 24.678 21.855C26.62 21.787 28.316 23.413 28.384 25.423ZM21.272 36.769C21.655 37.425 22.202 37.808 22.927 37.794L22.941 37.808C23.789 37.835 24.459 37.398 24.76 36.673C25.047 36.017 24.91 35.402 24.582 34.813C24.1011 33.9724 23.6134 33.1357 23.119 32.303L22.818 31.793L22.578 31.38C22.3775 31.026 22.1701 30.6759 21.956 30.33C21.518 29.66 20.711 29.36 19.918 29.537C19.138 29.715 18.591 30.317 18.468 31.123C18.386 31.643 18.537 32.093 18.796 32.531L19.458 33.669C20.059 34.702 20.662 35.739 21.272 36.769ZM32.405 28.102C30.996 28.184 30.066 26.598 30.695 25.45C31.142 24.617 31.61 23.799 32.078 22.98C32.256 22.669 32.434 22.358 32.61 22.046C32.843 21.622 33.075 21.198 33.322 20.788C33.773 20.009 34.539 19.654 35.373 19.831C36.208 20.009 36.837 20.651 36.905 21.526C36.932 21.882 36.837 22.292 36.673 22.593C35.8068 24.1525 34.922 25.7016 34.019 27.24C33.664 27.842 33.103 28.129 32.405 28.115V28.102ZM12.559 28.348C11.834 29.66 12.737 31.218 14.214 31.218L14.2 31.205C14.925 31.205 15.513 30.863 15.896 30.193C16.7341 28.7443 17.5641 27.2909 18.386 25.833C18.55 25.546 18.673 25.217 18.7 24.889C18.7399 24.4817 18.6415 24.0727 18.4208 23.7281C18.2 23.3834 17.8697 23.1231 17.483 22.989C16.621 22.689 15.746 22.962 15.24 23.714C15.02 24.049 14.816 24.407 14.616 24.76L14.433 25.08L13.928 25.957C13.468 26.754 13.01 27.548 12.559 28.348ZM30.271 30.221C30.576 30.221 30.882 30.218 31.189 30.215C31.804 30.2048 32.4191 30.2068 33.034 30.221C34.019 30.262 34.716 31.055 34.757 32.067C34.785 33.037 34.142 33.803 33.17 33.94L33.05 33.955C32.9634 33.9696 32.8758 33.9783 32.788 33.981H27.563C27.057 33.981 26.592 33.831 26.236 33.447C25.689 32.859 25.552 32.162 25.839 31.424C26.127 30.686 26.701 30.249 27.508 30.221C28.1226 30.2068 28.7374 30.2048 29.352 30.215C29.66 30.218 29.966 30.221 30.271 30.221ZM14.528 19.367C14.72 20.187 15.39 20.775 16.238 20.789V20.802C16.628 20.808 17.504 20.804 18.444 20.799C19.685 20.793 21.035 20.787 21.518 20.802C22.284 20.83 22.831 20.502 23.241 19.887C23.98 18.793 23.296 17.235 21.983 17.057C21.573 17.002 17.729 17.002 16.238 17.057C15.008 17.097 14.255 18.164 14.528 19.367Z" fill="#3A6EF2"/>
</g>
<path d="M56.594 25.813C56.594 20.946 60.016 16.658 65.187 16.658C68.513 16.658 71.644 18.513 72.639 21.79L69.144 22.657C68.391 20.994 67.007 19.959 65.138 19.959C62.007 19.959 60.332 22.922 60.332 25.765C60.332 28.632 61.958 31.426 65.187 31.426C67.08 31.426 68.537 30.414 69.314 28.728L72.809 29.595C71.717 32.92 68.659 34.727 65.187 34.727C60.137 34.727 56.594 30.848 56.594 25.813ZM74.926 34.245V16.273H78.324V34.245H74.926ZM80.557 27.885C80.557 24.102 83.421 21.163 87.305 21.163C91.116 21.163 93.956 24.006 93.956 27.861C93.956 31.667 91.14 34.606 87.208 34.606C83.397 34.606 80.557 31.716 80.557 27.885ZM87.257 24.199C85.242 24.199 84.027 25.982 84.027 27.885C84.027 29.74 85.217 31.571 87.257 31.571C89.271 31.571 90.485 29.788 90.485 27.885C90.485 26.005 89.32 24.199 87.256 24.199H87.257ZM96.19 21.524H99.588V28.632C99.588 30.15 100.292 31.571 102.016 31.571C103.739 31.571 104.443 30.15 104.443 28.631V21.524H107.842V28.559C107.842 32.029 105.681 34.606 101.967 34.606C98.375 34.606 96.19 32.149 96.19 28.559V21.524ZM115.944 34.606C112.352 34.606 110.07 31.354 110.07 27.957C110.07 24.512 112.376 21.163 116.139 21.163C117.692 21.163 118.979 21.717 119.95 22.946V16.272H123.348V34.245H120.217L120.12 32.39C119.173 33.812 117.668 34.606 115.944 34.606ZM113.541 27.885C113.541 29.74 114.731 31.571 116.77 31.571C118.785 31.571 119.998 29.788 119.998 27.885C119.998 26.005 118.833 24.199 116.77 24.199C114.755 24.199 113.541 25.982 113.541 27.885ZM126.277 34.245V17.14H131.812C135.502 17.14 138.585 18.802 138.585 22.922C138.585 26.704 135.405 28.656 131.788 28.656C131.181 28.656 130.55 28.608 129.846 28.487V34.245H126.277ZM129.846 20.175V25.475C130.44 25.5677 131.041 25.6161 131.642 25.62C133.463 25.62 134.919 24.873 134.919 22.898C134.919 20.946 133.535 20.175 131.739 20.175H129.846ZM139.868 27.86C139.868 24.247 142.417 21.163 146.252 21.163C150.16 21.163 152.515 24.03 152.515 27.885V28.728H143.315C143.582 30.414 144.601 31.764 146.446 31.764C147.66 31.764 148.582 31.185 149.214 30.174L152.248 31.137C151.325 33.426 148.825 34.607 146.422 34.607C142.562 34.607 139.868 31.714 139.868 27.86ZM146.252 23.765C144.626 23.765 143.655 24.97 143.363 26.463H149.019C148.801 24.97 147.878 23.765 146.252 23.765ZM158.581 34.606C156.25 34.606 154.017 33.161 154.017 30.631C154.017 27.788 156.736 26.56 159.285 26.56C160.353 26.56 161.202 26.753 162.198 27.114V26.367C162.198 24.946 161.372 23.934 159.892 23.934C158.848 23.934 157.877 24.44 157.513 25.452L154.478 24.849C155.037 22.416 157.586 21.163 159.94 21.163C163.144 21.163 165.499 23.211 165.499 26.536V34.246H162.465L162.368 32.751C161.591 34.028 160.037 34.606 158.581 34.606ZM157.367 30.463C157.367 31.547 158.459 32.005 159.406 32.005C160.887 32.005 162.198 30.993 162.198 29.427V29.307C161.827 29.1577 161.446 29.0367 161.057 28.945C160.657 28.8693 160.25 28.8291 159.843 28.825C158.799 28.825 157.367 29.185 157.367 30.463ZM168.207 16.273H171.533V26.704L176.291 21.524H180.272L174.931 27.162L180.854 34.245H176.558L171.533 27.909V34.245H168.207V16.273Z" fill="white"/>
</svg>
